<?xml version="1.0" encoding="utf-8"?>
<!-- Generator: Adobe Illustrator 16.0.0, SVG Export Plug-In . SVG Version: 6.00 Build 0)  -->
<!DOCTYPE svg PUBLIC "-//W3C//DTD SVG 1.1//EN" "http://www.w3.org/Graphics/SVG/1.1/DTD/svg11.dtd">
<svg version="1.1" id="Layer_1" xmlns="http://www.w3.org/2000/svg" xmlns:xlink="http://www.w3.org/1999/xlink" x="0px" y="0px"
	 width="201.205px" height="151.501px" viewBox="205.931 321.044 201.205 151.501"
	 enable-background="new 205.931 321.044 201.205 151.501" xml:space="preserve">
<path fill="#FAED24" d="M296.368,472.546c-0.279,0-0.837,0-1.116-0.278c-1.673-0.559-2.789-1.952-3.067-3.627l-6.415-71.957
	l-9.205,5.02c-1.394,0.837-3.067,0.558-4.462-0.279l-64.429-45.183c-1.394-1.116-1.952-2.789-1.673-4.463
	c0.279-1.673,1.673-3.068,3.626-3.068l192.728-27.612c1.674-0.279,3.348,0.558,4.185,1.952c0.837,1.395,0.837,3.347-0.279,4.742
	l-106.545,143.08C299.157,471.988,297.763,472.546,296.368,472.546 M293.579,390.825l5.855,66.381l88.138-118.538L293.579,390.825z
	 M221.341,355.403l52.156,36.816l107.66-59.687L221.341,355.403z"/>
</svg>
